<svg width="150" height="150" viewBox="0 0 150 150" fill="none" xmlns="http://www.w3.org/2000/svg">
    <path d="M75 129.75c30.238 0 54.75-24.512 54.75-54.75S105.238 20.25 75 20.25 20.25 44.762 20.25 75 44.762 129.75 75 129.75z" fill="#EBE9FE"/>
    <path d="M59.511 45.822c-9.33.89-15.08 3.567-18.085 6.822-5.207 5.64-6.725 15.183 1.951 20.39 8.676 5.206 16.918-5.207 11.93-11.28-4.99-6.074-6.725-6.291-6.725-6.291M141.639 50.474s-29.499.867-55.529-3.254a162.643 162.643 0 0 0-5.788-.812M64.527 28.458 55.48 62.076M77.193 57.995l6.64-24.332" stroke="#111827" stroke-width="1.5" stroke-miterlimit="10" stroke-linecap="round" stroke-linejoin="round"/>
    <path d="M52.486 73.2 46.2 96.567l4.035 21.262 14.836-15.406 6.795-24.901M83.996 33.39c.445-1.75-3.537-4.274-8.895-5.639-5.358-1.364-10.063-1.053-10.508.697-.446 1.75 3.537 4.273 8.894 5.638 5.358 1.364 10.063 1.052 10.509-.697z" stroke="#111827" stroke-width="1.5" stroke-miterlimit="10" stroke-linecap="round" stroke-linejoin="round"/>
    <path d="M77.136 31.642c.13-.512-1.036-1.251-2.605-1.65-1.57-.4-2.948-.31-3.079.203-.13.512 1.037 1.251 2.606 1.65 1.57.4 2.948.31 3.078-.203z" fill="#111827"/>
    <path d="M66.588 97.182s7.88-1.157 13.375-6.507c4.394-4.278 4.484-15.544-7.953-13.16" stroke="#111827" stroke-width="1.5" stroke-miterlimit="10" stroke-linecap="round" stroke-linejoin="round"/>
    <path d="M64.13 103.389c.794 2.241 4.687 6.48 12.146 4.061 5.35-1.736 8.604-5.133 10.194-9.038 1.278-3.137.58-8.532-5.422-8.966M126.6 110.052s-14.316-.289-26.607-5.061c-6.516-2.529-14.605-3.904-14.605-3.904M82.206 57.523s-1.986.021-4.818.542c-3.689.678-8.811 2.205-12.86 5.64-7.158 6.073-1.41 16.267 6.833 13.883 8.242-2.385 15.4-1.518 15.4-1.518s1.519 12.364 14.534 14.749M46.21 96.832s6.133 5.542 12.175 5.734" stroke="#111827" stroke-width="1.5" stroke-miterlimit="10" stroke-linecap="round" stroke-linejoin="round"/>
    <path d="M48.132 110.378s3.159 2.68 7.851 2.394c-4.596 4.213-5.75 5.058-5.75 5.058l-2.101-7.452z" fill="#111827"/>
</svg>
