<svg width="150" height="150" viewBox="0 0 150 150" fill="none" xmlns="http://www.w3.org/2000/svg">
    <path d="M75 129.75c30.238 0 54.75-24.512 54.75-54.75S105.238 20.25 75 20.25 20.25 44.762 20.25 75 44.762 129.75 75 129.75z" fill="#EBE9FE"/>
    <path d="M49.053 70.69s11.298-8.807 20.68-10.915c9.383-2.108 18 6.51 7.277 14.553-10.724 8.043-11.106 9.192-11.106 9.192s.575 14.361-13.786 22.021" stroke="#111827" stroke-miterlimit="10" stroke-linecap="round" stroke-linejoin="round"/>
    <path d="M91.968 70.281c.823 1.71 1.072 4.04.267 7.207-2.01 7.9-8.984 10.583-12.543 11.585-5.266 1.484-12.447-1.245-8.856-9.718" stroke="#111827" stroke-miterlimit="10" stroke-linecap="round" stroke-linejoin="round"/>
    <path d="M90.511 81.51s9.149 4.227 3.303 13.644c-2.584 4.166-8.044 6.582-13.643 6.464-6.75-.144-10.198-8.043-4.309-12.207M13.437 93.287S30.717 71.04 51.761 53.01M59.011 135.606s16.469-26.234 25.085-34.085M58.794 64.01l-5.251-.979a3.41 3.41 0 0 1-2.729-3.976L59.1 14.556a3.41 3.41 0 0 1 3.976-2.728l67.278 12.524a3.41 3.41 0 0 1 2.729 3.977l-8.285 44.499a3.409 3.409 0 0 1-3.976 2.728l-39.182-7.294" stroke="#111827" stroke-miterlimit="10" stroke-linecap="round" stroke-linejoin="round"/>
    <path d="m60.815 12.399 30.159 35.043 38.057-19.533M54.639 58.644 86.808 42.99M97.149 44.425l26.426 30.017M114.603 83.85c7.394 2.219 15.147.9 19.896-7.282M117.75 92.25c6.008 2.05 13.5 1.5 18-4.5" stroke="#111827" stroke-miterlimit="10" stroke-linecap="round" stroke-linejoin="round"/>
</svg>
