<svg width="150" height="150" viewBox="0 0 150 150" fill="none" xmlns="http://www.w3.org/2000/svg">
    <path d="M75 129.75c30.238 0 54.75-24.513 54.75-54.75 0-30.238-24.512-54.75-54.75-54.75S20.25 44.762 20.25 75c0 30.237 24.512 54.75 54.75 54.75z" fill="#FEE4E2"/>
    <path fill-rule="evenodd" clip-rule="evenodd" d="M124.312 69.733c.501 2.123.187 4.697-1.209 7.632-10.631 22.347-15.383 34.054-14.108 50.203a.75.75 0 1 1-1.495.118c-1.311-16.595 3.626-28.636 14.248-50.965 1.29-2.713 1.508-4.934 1.104-6.644-.401-1.702-1.435-2.973-2.801-3.775-2.763-1.623-6.889-1.32-9.703 1.394-1.708 1.648-3.734 4.329-5.354 6.635a113.306 113.306 0 0 0-2.726 4.076l-.04.062-.012.02-.636-.398-.635-.398.014-.023.041-.065.158-.248a114.734 114.734 0 0 1 2.609-3.888c1.622-2.31 3.719-5.096 5.539-6.852 3.292-3.176 8.152-3.578 11.505-1.609 1.692.994 2.999 2.594 3.501 4.725zm-23.13 8.994a.75.75 0 0 1-.237-1.034l.635.398.636.399a.75.75 0 0 1-1.034.237z" fill="#111827"/>
    <path fill-rule="evenodd" clip-rule="evenodd" d="M94.132 25.046c-3.526.15-7.186 2.885-7.543 8.645-.207 3.336-.922 10.398-1.583 16.607a1931.702 1931.702 0 0 1-1.168 10.666l-.105.939-.59-.066.59.067a.75.75 0 1 1-1.49-.169l.58.066-.58-.066.105-.938.282-2.53c.235-2.122.553-5.021.884-8.127.663-6.22 1.374-13.246 1.578-16.541.402-6.478 4.635-9.867 8.976-10.052 4.33-.185 8.61 2.843 8.964 8.72.273 4.526-.008 16.182-.353 26.658a2029.379 2029.379 0 0 1-.689 18.245l-.052 1.206-.018.423-.75-.033-.749-.033.019-.422.051-1.205a2028.815 2028.815 0 0 0 .689-18.23c.346-10.51.622-22.08.355-26.518-.304-5.038-3.867-7.463-7.403-7.312zm7.005 54.47a.75.75 0 0 1-.716-.783l.749.033.75.033a.75.75 0 0 1-.783.717z" fill="#111827"/>
    <path fill-rule="evenodd" clip-rule="evenodd" d="M74.097 23.722c-3.537.106-7.206 2.794-7.451 8.543-.143 3.371-.394 10.691-.61 17.173a9822.452 9822.452 0 0 0-.364 11.135l-.03.981-.75-.023-.75-.024.031-.982a9948.051 9948.051 0 0 1 .364-11.136c.215-6.48.467-13.808.61-17.188.277-6.503 4.55-9.848 8.905-9.979 2.154-.064 4.314.661 5.962 2.165 1.656 1.511 2.752 3.77 2.838 6.689.155 5.306.398 13.01.602 19.388l.26 8.107.109 3.322-.584.02.584-.02a.75.75 0 0 1-1.5.05l.584-.02-.584.02-.108-3.324c-.066-2.06-.159-4.917-.26-8.107-.204-6.378-.447-14.084-.602-19.392-.075-2.547-1.02-4.41-2.35-5.625-1.34-1.223-3.113-1.827-4.906-1.773zm-9.23 38.559a.75.75 0 0 1-.725-.774l.75.024.75.024a.75.75 0 0 1-.774.726z" fill="#111827"/>
    <path d="M46.078 126.766c-2.298-29.728-.5-53.443-.574-88.212-.027-12.262 15.14-13.033 16.353-2.167.996 8.923 2.892 24.858 2.892 24.858" stroke="#111827" stroke-width="1.5" stroke-miterlimit="10" stroke-linecap="round" stroke-linejoin="round"/>
    <path fill-rule="evenodd" clip-rule="evenodd" d="M45.464 21.736a.75.75 0 0 1-.363.997c-6.638 3.094-9.624 9.734-9.58 17.986a.75.75 0 1 1-1.5.008c-.046-8.6 3.092-15.926 10.446-19.354a.75.75 0 0 1 .997.363zM39.228 17.53a.75.75 0 0 1-.4.982c-2.748 1.158-5.228 3.517-7.04 6.405-1.811 2.886-2.911 6.234-2.961 9.301a.75.75 0 0 1-1.5-.024c.055-3.385 1.26-6.997 3.19-10.074 1.93-3.075 4.625-5.683 7.728-6.99a.75.75 0 0 1 .983.4zM66.06 68.731a.75.75 0 0 1 .53.22l8.615 8.615 8.614-8.615a.75.75 0 0 1 1.06 0l9 8.999a.75.75 0 0 1 0 1.06l-8.616 8.614 8.615 8.615a.75.75 0 0 1 0 1.06l-8.998 8.998a.75.75 0 0 1-1.06 0l-8.615-8.614-8.615 8.614a.75.75 0 0 1-1.06 0L56.533 97.3a.75.75 0 0 1 0-1.06l8.613-8.616-8.613-8.614a.75.75 0 0 1 0-1.06l8.997-8.999a.75.75 0 0 1 .53-.22zm0 1.811-7.937 7.938 8.614 8.614a.75.75 0 0 1 0 1.06l-8.613 8.615 7.936 7.937 8.615-8.614a.75.75 0 0 1 1.06 0l8.615 8.614 7.937-7.937-8.615-8.615a.75.75 0 0 1 0-1.06l8.615-8.614-7.938-7.938-8.613 8.615a.75.75 0 0 1-1.06 0l-8.616-8.615z" fill="#111827"/>
</svg>
