<svg width="150" height="150" viewBox="0 0 150 150" fill="none" xmlns="http://www.w3.org/2000/svg">
    <path d="M75 129.75c30.238 0 54.75-24.512 54.75-54.75S105.238 20.25 75 20.25 20.25 44.762 20.25 75 44.762 129.75 75 129.75z" fill="#F0FDF9"/>
    <path d="M14.106 91.213s25.653-16.547 53.366-11.842c24.528 4.166 28.096 1.032 39.766-4.032 7.866-3.412 10.08 4.886 9.108 7.557" stroke="#111827" stroke-width="1.5" stroke-miterlimit="10" stroke-linecap="round" stroke-linejoin="round"/>
    <path d="M121.41 94.812c6.14-8.21-2.803-13.698-7.12-11.175 0 0-14.506 7.545-24.388 8.588" stroke="#111827" stroke-width="1.5" stroke-miterlimit="10" stroke-linecap="round" stroke-linejoin="round"/>
    <path d="M91.891 103.12s11.655-1.488 20.789-7.293c8.881-5.644 17.389 4.084 7.696 11.162-8.887 6.49-19.822 11.589-49.82 15.876-27.974 3.997-33.39 7.765-37.584 10.63M46.122 89.945s6.115-.752 13.905 5.298c5.223 3.489 8.856 2.532 12.629.678 6.986-3.436 14.882 5.865 3.892 13.498-10.99 7.635-27.422 9.294-27.422 9.294M100.724 68.428H49.276a3.926 3.926 0 0 1-3.925-3.925V20.361a3.926 3.926 0 0 1 3.925-3.925h51.448a3.926 3.926 0 0 1 3.925 3.925v44.142a3.926 3.926 0 0 1-3.925 3.925z" stroke="#111827" stroke-width="1.5" stroke-miterlimit="10" stroke-linecap="round" stroke-linejoin="round"/>
    <path d="M96.478 24.771H53.522v35.322h42.956V24.771z" stroke="#111827" stroke-width="1.5" stroke-miterlimit="10" stroke-linecap="round" stroke-linejoin="round"/>
    <path d="m53.825 43.34 9.622-10.196L84.127 60M77.377 50.952l8.516-9.192 10.299 12.639M87.43 35.728a3.303 3.303 0 1 0 0-6.605 3.303 3.303 0 0 0 0 6.605z" stroke="#111827" stroke-width="1.5" stroke-miterlimit="10" stroke-linecap="round" stroke-linejoin="round"/>
</svg>
