<svg width="150" height="150" viewBox="0 0 150 150" fill="none" xmlns="http://www.w3.org/2000/svg">
    <path d="M75 129.75c30.238 0 54.75-24.513 54.75-54.75 0-30.238-24.512-54.75-54.75-54.75S20.25 44.762 20.25 75c0 30.237 24.512 54.75 54.75 54.75z" fill="#FEF0C7"/>
    <path d="M104.522 142.883c-3.089-5.238-5.103-14.747-14.334-19.121-12.123-4.731-7.053-15.855 4.008-12.918 6.142 1.631 13.779.284 16.168-8.46 1.67-6.111-1.113-18.07-10.192-20.713-9.512-2.77-4.913-10.97 1.587-10.475 8.934.68 18.015 8.63 19.735 18.408M144.582 129.7c-1.517-4.119-2.906-8.863-3.375-13.33-1.2-11.415 8.184-23.034 7.515-33.266-.566-8.65-9.671-7.411-10.935-.879-1.644 8.49-4.205 11.08-4.205 11.08s2.033-11.672-1.95-24.23c-2.902-9.152-13.951-4.568-11.016 3.339 2.559 6.894.908 17.23.908 17.23M26.68 116.457s5.246-29.166 26.243-30.915c12.91-1.637 10.703-13.66-.741-13.505-6.354.087-13.434-3.08-13.623-12.14-.132-6.334 4.52-18.572 17.55-22.117 6.811-1.852 6.057-10.723-2.502-10.32-11.049.52-19.91 10.736-22.731 17.33" stroke="#111827" stroke-width="1.5" stroke-miterlimit="10" stroke-linecap="round" stroke-linejoin="round"/>
    <path d="M21.398 42.366s4.563-9.753 11.152-13.863c4.678-2.918 12.717-3.336 14.528-.087" stroke="#111827" stroke-width="1.5" stroke-miterlimit="10" stroke-linecap="round" stroke-linejoin="round"/>
    <path d="M2.267 63.894s.387.093 4.33-10.688c3.943-10.78 9.468-21.982 16.573-26.58 5.316-3.44 10.553-2.628 12.612.104M102.831 96.067V89.79l-4.544-.261a12.79 12.79 0 0 0-1.228-2.973l3.025-3.394-4.438-4.439-3.393 3.027a12.829 12.829 0 0 0-2.973-1.228l-.261-4.544H82.74l-.26 4.544a12.79 12.79 0 0 0-2.974 1.228l-3.394-3.025-4.439 4.438 3.027 3.395c-.528.925-.94 1.921-1.228 2.972l-4.544.261v6.278l4.544.261a12.79 12.79 0 0 0 1.228 2.973l-3.027 3.394 4.439 4.439 3.394-3.027c.926.528 1.922.94 2.973 1.228l.261 4.544h6.278l.26-4.544a12.811 12.811 0 0 0 2.974-1.228l3.394 3.027 4.439-4.439-3.026-3.394c.528-.925.94-1.921 1.229-2.973l4.542-.263zm-16.95 1.367a4.505 4.505 0 1 1 0-9.009 4.505 4.505 0 0 1 0 9.009zM88.89 58.97V51.28l-5.567-.32a15.674 15.674 0 0 0-1.504-3.642l3.708-4.16-5.439-5.438-4.16 3.708a15.674 15.674 0 0 0-3.641-1.505l-.32-5.566h-7.692l-.32 5.566a15.674 15.674 0 0 0-3.642 1.505l-4.159-3.708-5.439 5.439 3.708 4.16a15.674 15.674 0 0 0-1.505 3.641l-5.566.32v7.692l5.567.32a15.674 15.674 0 0 0 1.504 3.641l-3.708 4.16 5.439 5.439 4.16-3.708a15.674 15.674 0 0 0 3.642 1.504l.319 5.567h7.69l.32-5.567a15.674 15.674 0 0 0 3.642-1.504l4.16 3.708 5.438-5.44-3.708-4.159a15.674 15.674 0 0 0 1.505-3.642l5.568-.32zm-20.769 2.176a6.02 6.02 0 1 1 .001-12.04 6.02 6.02 0 0 1-.001 12.04z" stroke="#111827" stroke-width="1.5" stroke-miterlimit="10" stroke-linecap="round" stroke-linejoin="round"/>
</svg>
