<svg width="150" height="150" viewBox="0 0 150 150" fill="none" xmlns="http://www.w3.org/2000/svg">
    <path d="M75 129.75c30.238 0 54.75-24.513 54.75-54.75 0-30.238-24.512-54.75-54.75-54.75-30.237 0-54.75 24.512-54.75 54.75 0 30.237 24.513 54.75 54.75 54.75z" fill="#FBE8FF"/>
    <path d="M90.51 91.832H68.058c-5.394 0-9.766-4.373-9.766-9.767v-59.8c0-5.395 4.372-9.767 9.766-9.767H90.51c5.394 0 9.767 4.373 9.767 9.767v59.8c0 5.394-4.373 9.767-9.767 9.767zM58.182 29.718s-5.188-2.783-8.101 1.455c-2.913 4.237-.398 9.8 8.079 14.833" stroke="#111827" stroke-width="1.5" stroke-miterlimit="10" stroke-linecap="round" stroke-linejoin="round"/>
    <path d="M58.244 62.318s-14.786-8.63-12.402-15.914c2.383-7.284 12.402-.509 12.402-.509" stroke="#111827" stroke-width="1.5" stroke-miterlimit="10" stroke-linecap="round" stroke-linejoin="round"/>
    <path d="M58.182 62.44s-8.701-7.537-12.34-1.203c-4.583 7.977 13.774 19.866 13.774 19.866M74.912 91.915s8.28 8.393 11.856 13.956c3.576 5.562 13.509 24.635 13.509 24.635M10.17 104.329c7.643-10.984 15.693-21.774 19.57-24.486 8.55-5.979 11.224.674 11.224.674" stroke="#111827" stroke-width="1.5" stroke-miterlimit="10" stroke-linecap="round" stroke-linejoin="round"/>
    <path d="M34.754 87.42s10.915-17.795 19.2-3.23M66.719 92.182s3.832 12.612 1.872 19.389c-1.962 6.777-10.943 12.702-17.514 20.099M93.99 23.713H64.5v59.17h29.49v-59.17z" stroke="#111827" stroke-width="1.5" stroke-miterlimit="10" stroke-linecap="round" stroke-linejoin="round"/>
    <path d="M135.639 104.545s-11.655-17.748-15.099-23.707c-3.444-5.96-3.946-22.686-8.74-29.535-3.708-5.298-9.152-8.348-14.834-9.801-5.695-1.457-12.964 5.968-3.841 13.156 4.37 3.444 9.36 8.477 9.36 8.477" fill="#FBE8FF"/>
    <path d="M135.639 104.545s-11.655-17.748-15.099-23.707c-3.444-5.96-3.946-22.686-8.74-29.535-3.708-5.298-9.152-8.348-14.834-9.801-5.695-1.457-12.964 5.968-3.841 13.156 4.37 3.444 9.36 8.477 9.36 8.477" stroke="#111827" stroke-width="1.5" stroke-miterlimit="10" stroke-linecap="round" stroke-linejoin="round"/>
    <path d="M48.507 89.988s10.125-13.533 16.15-17.776c6.023-4.244 12.595.819 8.692 8.558-3.903 7.74-12.084 19.148-16 30.377" fill="#FBE8FF"/>
    <path d="M48.507 89.988s10.125-13.533 16.15-17.776c6.023-4.244 12.595.819 8.692 8.558-3.903 7.74-12.084 19.148-16 30.377" stroke="#111827" stroke-width="1.5" stroke-miterlimit="10" stroke-linecap="round" stroke-linejoin="round"/>
</svg>
