<svg width="150" height="150" viewBox="0 0 150 150" fill="none" xmlns="http://www.w3.org/2000/svg">
    <g clip-path="url(#npqxa4czga)">
        <path d="M75 129.75c30.238 0 54.75-24.513 54.75-54.75 0-30.238-24.512-54.75-54.75-54.75-30.237 0-54.75 24.512-54.75 54.75 0 30.237 24.513 54.75 54.75 54.75z" fill="#F5F5F5"/>
        <path d="M96.195 83.455S86.387 73.014 77.441 69.49c-8.948-3.525-18.788 3.663-9.43 13.26 9.36 9.597 9.56 10.79 9.56 10.79s-2.778 14.104 10.235 23.881" stroke="#111827" stroke-width="1.5" stroke-miterlimit="10" stroke-linecap="round" stroke-linejoin="round"/>
        <path d="M53.855 76.447c-1.077 1.563-1.682 3.827-1.373 7.08.771 8.114 7.248 11.838 10.611 13.377 4.976 2.277 12.49.686 10.247-8.24" stroke="#111827" stroke-width="1.5" stroke-miterlimit="10" stroke-linecap="round" stroke-linejoin="round"/>
        <path d="M53.567 87.766s-9.69 2.77-5.363 12.974c1.914 4.513 6.936 7.741 12.488 8.485 6.691.897 11.313-6.378 6.135-11.398" stroke="#111827" stroke-width="1.5" stroke-miterlimit="10" stroke-linecap="round" stroke-linejoin="round"/>
        <path fill-rule="evenodd" clip-rule="evenodd" d="M100.426 70.664a.75.75 0 0 1 1.058.082 218.322 218.322 0 0 1 20.326 28.006 178.111 178.111 0 0 1 5.079 8.864c.564 1.059.988 1.889 1.272 2.454a66.177 66.177 0 0 1 .4.813l.021.043.005.011.001.003c.001.001.001.002-.677.322l.678-.32a.75.75 0 1 1-1.356.641l-.001-.002-.005-.01-.018-.039a67.59 67.59 0 0 0-.389-.79c-.278-.555-.697-1.373-1.255-2.421a176.397 176.397 0 0 0-5.035-8.788 216.749 216.749 0 0 0-20.186-27.812.751.751 0 0 1 .082-1.057zM56.356 107.942a.75.75 0 0 1 1.054.114c3.717 4.621 8.638 14.088 12.603 22.321a451.12 451.12 0 0 1 6.904 15.068l.104.241.036.083-.689.296-.689.296-.035-.08-.103-.239-.4-.916a449.354 449.354 0 0 0-6.48-14.098c-3.98-8.266-8.83-17.569-12.42-22.032a.75.75 0 0 1 .115-1.054zm20.308 38.812a.75.75 0 0 1-.985-.393l.69-.296.688-.296a.75.75 0 0 1-.393.985zM30.293 29.63a.75.75 0 0 1 .828.663l4.527 41.233a5.805 5.805 0 0 0 6.388 5.16l21.932-2.336a.75.75 0 1 1 .158 1.492l-21.93 2.335a7.305 7.305 0 0 1-8.04-6.491v-.001L29.63 30.457a.75.75 0 0 1 .663-.828z" fill="#111827"/>
        <path fill-rule="evenodd" clip-rule="evenodd" d="M103.747 22.645a3.43 3.43 0 0 0-3.775-3.049.75.75 0 1 1-.159-1.491 4.931 4.931 0 0 1 5.426 4.382l4.635 43.523a4.932 4.932 0 0 1-4.382 5.426l-20.97 2.234a.75.75 0 0 1-.159-1.492l20.97-2.233a3.43 3.43 0 0 0 3.049-3.776l-4.635-43.524z" fill="#111827"/>
        <path fill-rule="evenodd" clip-rule="evenodd" d="M103.955 26.734a.75.75 0 0 0-.822-.671s.001 0 0 0c-1.294.13-2.709-1.1-2.916-3.154l-.381-3.787a5.114 5.114 0 0 0-5.601-4.576L58.12 18.188a4.25 4.25 0 0 1-3.417-1.21l-3.55-3.523a5.744 5.744 0 0 0-4.623-1.639L33.102 13.17a5.594 5.594 0 0 0-5.005 6.127l.892 8.843a6.87 6.87 0 0 0 7.524 6.146l66.771-6.73a.75.75 0 0 0 .671-.821zm-3.756-.376-63.837 6.434a5.37 5.37 0 0 1-5.88-4.804l-.893-8.843a4.094 4.094 0 0 1 3.663-4.483l13.428-1.353a4.244 4.244 0 0 1 3.416 1.21l3.55 3.523a5.748 5.748 0 0 0 4.623 1.639l36.116-3.642a3.614 3.614 0 0 1 3.958 3.233l.382 3.787c.128 1.274.665 2.462 1.474 3.3zM105.875 69.89a1.476 1.476 0 0 0-.142.002.74.74 0 0 0-.124.021 1.407 1.407 0 0 0-.044.01.75.75 0 0 0 .223 1.483l.192-.021a.75.75 0 0 0-.105-1.495z" fill="#111827"/>
        <path fill-rule="evenodd" clip-rule="evenodd" d="M104.853 25.945a.75.75 0 0 1 .825.667l4.196 39.399c.278 2.618-1.442 5.031-3.973 5.37a.712.712 0 0 1-.041.005c-2.545.202-4.737-1.795-5.015-4.414l-4.196-39.4a.75.75 0 0 1 .667-.824l7.537-.803zM98.22 28.16l4.116 38.653c.202 1.895 1.747 3.197 3.386 3.079 1.626-.23 2.861-1.827 2.66-3.723l-4.116-38.653-6.046.644zM62.54 41.105a.75.75 0 0 1 .55.16l5.326 4.284 4.282-5.325a.75.75 0 0 1 1.055-.115l5.815 4.677a.75.75 0 0 1 .114 1.055l-4.283 5.325 5.325 4.283a.75.75 0 0 1 .114 1.054l-4.677 5.815a.75.75 0 0 1-1.054.114l-5.325-4.283-4.283 5.325a.75.75 0 0 1-1.055.114l-5.814-4.676a.75.75 0 0 1-.114-1.055l4.282-5.325-5.324-4.283a.75.75 0 0 1-.114-1.054l4.676-5.815a.75.75 0 0 1 .503-.275zm.195 1.8-3.736 4.646 5.324 4.282a.75.75 0 0 1 .114 1.055l-4.282 5.325L64.8 61.95l4.284-5.324a.75.75 0 0 1 1.054-.115l5.325 4.283 3.736-4.645-5.325-4.284a.75.75 0 0 1-.114-1.054l4.283-5.325-4.646-3.737-4.282 5.326a.75.75 0 0 1-1.055.114l-5.325-4.283z" fill="#111827"/>
    </g>
    <defs>
        <clipPath id="npqxa4czga">
            <path fill="#fff" d="M0 0h150v150H0z"/>
        </clipPath>
    </defs>
</svg>
