<svg width="150" height="150" viewBox="0 0 150 150" fill="none" xmlns="http://www.w3.org/2000/svg">
    <path d="M75 129.75c30.238 0 54.75-24.512 54.75-54.75S105.238 20.25 75 20.25 20.25 44.762 20.25 75 44.762 129.75 75 129.75z" fill="#FDEAD7"/>
    <path d="M79.284 84.33C68.8 88.206 57.885 80.235 64.899 68.665c7.037-11.608-4.355-17.682-12.08-11.218-10.7 8.953-3.865 22.852-17.266 30.735-9.463 5.567-17.01 8.233-17.01 8.233M89.584 79.851c3.375-2.8 4.692-10.82.192-13.835-6.775-4.54-2.68-14.697 6.224-10.963 7.174 3.009 14.952 15.416 6.192 28.197" stroke="#111827" stroke-width="1.5" stroke-miterlimit="10" stroke-linecap="round" stroke-linejoin="round"/>
    <path d="M81.333 91.581c-2.207-2.364-5.169-10.84 6.621-11.508 10.878-.616 17.342 6.306 19.548 10.406 2.207 4.099 1.007 12.448-5.025 13.883" stroke="#111827" stroke-width="1.5" stroke-miterlimit="10" stroke-linecap="round" stroke-linejoin="round"/>
    <path d="M90.32 108.67s-5.288-.64-9.617-2.743c-5.517-2.681-7.567-14.189 4.257-14.504 11.823-.314 20.337 9.302 16.712 20.653-3.626 11.35-24.91 22.543-53.445 27.115M76.276 59.586a3.543 3.543 0 1 0 0-7.086 3.543 3.543 0 0 0 0 7.086zM73.213 12.711H61.277v4.224h4.207v4.149h-4.207v4.224h11.936" stroke="#111827" stroke-width="1.5" stroke-miterlimit="10" stroke-linecap="round" stroke-linejoin="round"/>
    <path d="M79.297 40.624V11.16a3.022 3.022 0 0 0-6.041 0v29.464c-4.931 1.331-8.564 5.822-8.564 11.174 0 6.399 5.187 11.584 11.585 11.584 6.397 0 11.584-5.186 11.584-11.584 0-5.35-3.633-9.843-8.564-11.174z" stroke="#111827" stroke-width="1.5" stroke-miterlimit="10" stroke-linecap="round" stroke-linejoin="round"/>
</svg>
