<svg width="150" height="150" viewBox="0 0 150 150" fill="none" xmlns="http://www.w3.org/2000/svg">
    <path d="M69.867 135.246c30.238 0 54.75-24.513 54.75-54.75 0-30.238-24.512-54.75-54.75-54.75s-54.75 24.512-54.75 54.75c0 30.237 24.512 54.75 54.75 54.75z" fill="#E0EAFF"/>
    <path d="M54.29 72.294c15.89 0 28.77-12.88 28.77-28.77 0-15.89-12.88-28.77-28.77-28.77-15.889 0-28.77 12.88-28.77 28.77 0 15.89 12.881 28.77 28.77 28.77z" stroke="#111827" stroke-width="1.5" stroke-miterlimit="10" stroke-linecap="round" stroke-linejoin="round"/>
    <path d="M54.29 62.754c10.886 0 19.71-8.61 19.71-19.23 0-10.62-8.824-19.23-19.71-19.23-10.885 0-19.71 8.61-19.71 19.23 0 10.62 8.825 19.23 19.71 19.23z" stroke="#111827" stroke-width="1.5" stroke-miterlimit="10" stroke-linecap="round" stroke-linejoin="round"/>
    <path d="M92.677 74.547s-13.774-.707-22.822 5.229c-12.246 8.032-1.847 19.07 6.582 14.695 5.404-2.805 10.48-.751 13.692 4.193 3.212 4.944 8.874 5.146 17.069 1.533" fill="#E0EAFF"/>
    <path d="M92.677 74.547s-13.774-.707-22.822 5.229c-12.246 8.032-1.847 19.07 6.582 14.695 5.404-2.805 10.48-.751 13.692 4.193 3.212 4.944 8.874 5.146 17.069 1.533" stroke="#111827" stroke-width="1.5" stroke-miterlimit="10" stroke-linecap="round" stroke-linejoin="round"/>
    <path d="M48.357 72.294c-5.907 4.177-6.73 9.541-3.326 14.757 5.052 7.737 13.326 9.601 17.283 4.527 4.274-5.48-2.274-12.28-6.897-14.028M134.883 75.96s-19.617-1.17-31.374-4.58c-10.791-3.13-21.07-5.637-30.738-5.656" stroke="#111827" stroke-width="1.5" stroke-miterlimit="10" stroke-linecap="round" stroke-linejoin="round"/>
    <path d="M43.577 84.697s-7.631 5.828-.975 14.955c6.655 9.128 18.178 8.994 21.282 2.99 3.103-6.005-2.413-10.056-2.413-10.056" stroke="#111827" stroke-width="1.5" stroke-miterlimit="10" stroke-linecap="round" stroke-linejoin="round"/>
    <path d="M46.003 103.146c-.676 1.413-2.341 9.988 8.415 14.868 10.434 4.734 21.597-6.299 8.393-13.604" stroke="#111827" stroke-width="1.5" stroke-miterlimit="10" stroke-linecap="round" stroke-linejoin="round"/>
    <path d="M117.223 132.822s-14.656-1.059-27.843-6.831c-17.574-7.692-27.627-6.83-27.627-6.83M69.652 68.7l3.125 9.142M78.483 93.768s2.145 7.644 3.63 11.728c2.547 7.004-5.992 15.005-13.56 7.329M54.602 31.039c6.98.206 11.037 4.71 12.32 9.838" stroke="#111827" stroke-width="1.5" stroke-miterlimit="10" stroke-linecap="round" stroke-linejoin="round"/>
</svg>
