<svg width="150" height="150" viewBox="0 0 150 150" fill="none" xmlns="http://www.w3.org/2000/svg">
    <path d="M75 129.75c30.238 0 54.75-24.512 54.75-54.75S105.238 20.25 75 20.25 20.25 44.762 20.25 75 44.762 129.75 75 129.75z" fill="#FFE6D5"/>
    <path d="M14.106 91.213s25.653-16.547 53.366-11.842c24.528 4.166 28.096 1.032 39.766-4.032 7.866-3.412 10.08 4.886 9.108 7.557" stroke="#111827" stroke-width="1.5" stroke-miterlimit="10" stroke-linecap="round" stroke-linejoin="round"/>
    <path d="M121.41 94.812c6.139-8.21-2.804-13.698-7.121-11.175 0 0-14.505 7.545-24.386 8.588" stroke="#111827" stroke-width="1.5" stroke-miterlimit="10" stroke-linecap="round" stroke-linejoin="round"/>
    <path d="M91.892 103.12s11.655-1.488 20.788-7.293c8.882-5.644 17.39 4.084 7.697 11.162-8.888 6.49-19.823 11.589-49.821 15.876-27.974 3.997-33.39 7.765-37.584 10.63M46.122 89.945s6.115-.752 13.905 5.298c5.223 3.489 8.856 2.532 12.629.678 6.986-3.436 14.882 5.865 3.892 13.498-10.99 7.635-27.422 9.294-27.422 9.294M75.75 11.961c-2.64 1.454-11.317 6.463-25.995 7.488v24.32c0 6.31 3.39 20.081 25.995 28.486 5.549-2.325 25.995-12.855 25.995-28.486v-24.32c-16.008-1.118-24.827-6.983-25.995-7.488z" stroke="#111827" stroke-width="1.5" stroke-miterlimit="10" stroke-linecap="round" stroke-linejoin="round"/>
    <path d="M75.75 23.064c-1.668.918-7.149 4.083-16.42 4.73v15.363c0 3.985 2.142 12.685 16.42 17.994 3.505-1.469 16.42-8.122 16.42-17.995V27.796c-10.112-.707-15.682-4.412-16.42-4.731z" stroke="#111827" stroke-width="1.5" stroke-miterlimit="10" stroke-linecap="round" stroke-linejoin="round"/>
</svg>
