<svg width="150" height="150" viewBox="0 0 150 150" fill="none" xmlns="http://www.w3.org/2000/svg">
    <path d="M75 129.75c30.238 0 54.75-24.513 54.75-54.75 0-30.238-24.512-54.75-54.75-54.75S20.25 44.762 20.25 75c0 30.237 24.512 54.75 54.75 54.75z" fill="#D1FADF"/>
    <path d="M118.365 126.85c-22.666-5.313-35.99-16.615-55.087-18.739M137.748 71.472S90.456 65.338 78.827 39.51c-4.853-10.776-16.277-6.527-15.56 3.625.68 9.597 6.502 12.111 4.83 23.8-1.038 7.25 2.822 17.471 13.611 19.658" stroke="#111827" stroke-width="1.5" stroke-miterlimit="10" stroke-linecap="round" stroke-linejoin="round"/>
    <path d="M67.067 57.555s-19.649-1.073-28.115 8.226C30.558 75 36.08 88.399 54.318 86.424c13.779-1.493 12.174-14.817 1.646-15.434-4.493-.262-5.811.078-8.45.76" stroke="#111827" stroke-width="1.5" stroke-miterlimit="10" stroke-linecap="round" stroke-linejoin="round"/>
    <path d="M40.88 84.39c-2.195 2.583-3.173 11.19 6.063 13.617 4.713 1.237 10.35.909 14.284-1.17 5.714-3.02 6.065-10.665.483-13.21" stroke="#111827" stroke-width="1.5" stroke-miterlimit="10" stroke-linecap="round" stroke-linejoin="round"/>
    <path d="M45.243 97.6c-3.617 2.342-3.327 11.079 3.699 13.116 4.563 1.325 8.634.743 12.078-1.179 4.995-2.785 5.316-10.348.517-12.68" stroke="#111827" stroke-width="1.5" stroke-miterlimit="10" stroke-linecap="round" stroke-linejoin="round"/>
    <path fill-rule="evenodd" clip-rule="evenodd" d="M65.763 24.373a.75.75 0 0 1-.39.986c-3.414 1.476-5.82 3.577-7.406 6.296-1.592 2.73-2.39 6.136-2.484 10.266a.75.75 0 0 1-1.5-.034c.099-4.295.93-7.973 2.689-10.988 1.765-3.026 4.433-5.329 8.105-6.917a.75.75 0 0 1 .986.39zM61.7 17.777a.75.75 0 0 1-.53.919C55.316 20.264 46.04 28 46.368 40.349a.75.75 0 1 1-1.5.04c-.348-13.154 9.505-21.425 15.914-23.142a.75.75 0 0 1 .919.53z" fill="#111827"/>
</svg>
