<svg width="150" height="150" viewBox="0 0 150 150" fill="none" xmlns="http://www.w3.org/2000/svg">
    <path d="M75 129.75c30.238 0 54.75-24.513 54.75-54.75 0-30.238-24.512-54.75-54.75-54.75-30.237 0-54.75 24.512-54.75 54.75 0 30.237 24.513 54.75 54.75 54.75z" fill="#E6F4D7"/>
    <path d="M55.905 36.877c-7.04-2.33-14.28-1.432-18.598-.27M62.01 28.965c-8.856-2.588-19.62-3.32-28.678-.59M48.657 111.174c-11.622 3.043-20.37 6.433-20.37 6.433M94.564 89.457s6.607 3.016 11.24 8.671c5.261 6.422-1.812 14.418-11.271 10.677-6.847-2.709-16.035-2.806-25.381-1.678" stroke="#111827" stroke-width="1.5" stroke-miterlimit="10" stroke-linecap="round" stroke-linejoin="round"/>
    <path d="M95.57 70.788s15.223-2.154 29.634-1.058c11.17.85 12.594 15.453-.162 15.843-15.843.485-24.446 2.448-34.355 4.746M60.515 48.156c28.88-1.495 31.37-6.858 49.752-8.58 10.723-1.341 11.241 12.936 2.25 14.123-13.07 1.723-19.772 5.314-19.772 5.314M11.553 58.575a732.813 732.813 0 0 1 12.21-3.128M92.457 59.106s21.549-2.133 28.293-.334c5.745 1.531 8.282 5.408 7.707 10.675" stroke="#111827" stroke-width="1.5" stroke-miterlimit="10" stroke-linecap="round" stroke-linejoin="round"/>
    <path d="M46.845 80.7c12.341-1.52 21.322-11.068 20.058-21.327C65.639 49.114 54.61 42.03 42.269 43.55 29.927 45.07 20.947 54.62 22.21 64.878c1.263 10.259 12.292 17.343 24.634 15.823z" stroke="#111827" stroke-width="1.5" stroke-miterlimit="10" stroke-linecap="round" stroke-linejoin="round"/>
    <path d="M39.485 80.734s8.28 19.217 9.74 34.217c11.248-2.708 19.997-4.374 19.997-4.374s.468-21.3-6.613-37.758M43.868 61.308l9.909 2.394M48.606 49.748l-5.313 11.274" stroke="#111827" stroke-width="1.5" stroke-miterlimit="10" stroke-linecap="round" stroke-linejoin="round"/>
</svg>
