<svg width="150" height="150" viewBox="0 0 150 150" fill="none" xmlns="http://www.w3.org/2000/svg">
    <path d="M75 129.75c30.238 0 54.75-24.512 54.75-54.75S105.238 20.25 75 20.25 20.25 44.762 20.25 75 44.762 129.75 75 129.75z" fill="#FEE4E2"/>
    <path d="M14.106 91.213s25.653-16.547 53.366-11.842c24.528 4.166 28.096 1.032 39.766-4.032 7.866-3.412 10.08 4.886 9.108 7.557" stroke="#111827" stroke-width="1.5" stroke-miterlimit="10" stroke-linecap="round" stroke-linejoin="round"/>
    <path d="M121.41 94.812c6.14-8.21-2.803-13.698-7.12-11.175 0 0-14.505 7.545-24.387 8.588" stroke="#111827" stroke-width="1.5" stroke-miterlimit="10" stroke-linecap="round" stroke-linejoin="round"/>
    <path d="M91.891 103.12s11.655-1.488 20.789-7.293c8.881-5.644 17.389 4.084 7.696 11.162-8.887 6.49-19.822 11.589-49.82 15.876-27.974 3.997-33.39 7.765-37.585 10.63M46.122 89.945s6.116-.752 13.905 5.298c5.223 3.489 8.856 2.532 12.629.678 6.987-3.436 14.883 5.865 3.892 13.498-10.99 7.635-27.421 9.294-27.421 9.294" stroke="#111827" stroke-width="1.5" stroke-miterlimit="10" stroke-linecap="round" stroke-linejoin="round"/>
    <path d="M69.659 12.768a4.863 4.863 0 0 0-4.856 4.857v5.34H50.357a.85.85 0 0 0 0 1.7h4.122l2.324 41.821a6.11 6.11 0 0 0 6.094 5.766h24.206a6.107 6.107 0 0 0 6.094-5.762l2.324-41.825h4.122a.85.85 0 0 0 0-1.7H85.197v-5.34a4.863 4.863 0 0 0-4.856-4.857H69.659zm0 1.7h10.682a3.16 3.16 0 0 1 3.157 3.157v5.34H66.502v-5.34a3.16 3.16 0 0 1 3.157-3.157zM56.182 24.665h37.636L91.5 66.394a4.408 4.408 0 0 1-4.398 4.159H62.897a4.407 4.407 0 0 1-4.398-4.16l-2.317-41.728zm8.91 8.498a.85.85 0 0 0-.82.88l.942 27.192a.847.847 0 0 0 .85.817h.033a.845.845 0 0 0 .817-.877l-.943-27.192c-.015-.47-.426-.885-.88-.82zm9.908 0a.85.85 0 0 0-.85.85v27.076a.85.85 0 0 0 1.7 0V34.013a.85.85 0 0 0-.85-.85zm9.909 0c-.485-.034-.863.352-.88.82l-.946 27.192a.848.848 0 0 0 .82.877h.03a.847.847 0 0 0 .85-.817l.945-27.193a.85.85 0 0 0-.82-.88z" fill="#000"/>
</svg>
