<svg width="150" height="150" viewBox="0 0 150 150" fill="none" xmlns="http://www.w3.org/2000/svg">
    <path d="M75 129.75c30.238 0 54.75-24.513 54.75-54.75 0-30.238-24.512-54.75-54.75-54.75S20.25 44.762 20.25 75c0 30.237 24.512 54.75 54.75 54.75z" fill="#FEF0C7"/>
    <path fill-rule="evenodd" clip-rule="evenodd" d="M77.663 57.378c-.032 1.793.73 3.992 2.797 6.438 2.228 2.637 3.06 5.056 2.939 7.228-.122 2.162-1.182 3.944-2.47 5.331-1.288 1.386-2.844 2.421-4.059 3.106a20.493 20.493 0 0 1-1.978.976l-.125.052-.035.013-.01.004-.004.002-.27-.7.27.7a.75.75 0 0 1-.54-1.4l.006-.002.025-.01a13.559 13.559 0 0 0 .512-.222c.35-.16.845-.4 1.413-.72 1.143-.644 2.553-1.59 3.695-2.82 1.142-1.228 1.977-2.695 2.072-4.394.095-1.69-.533-3.745-2.587-6.176-2.23-2.638-3.191-5.178-3.151-7.432.04-2.265 1.09-4.146 2.693-5.431 3.183-2.552 8.507-2.758 12.627.69 5.006 4.187 7.047 9.146 9.002 13.896.2.486.4.97.602 1.452 2.17 5.18 4.618 10.087 11.105 13.903 4.646 2.733 9.416 4.248 13.031 5.078 1.806.414 3.319.657 4.378.796a32.38 32.38 0 0 0 1.543.166l.079.005.019.001h.004m0 0a.75.75 0 0 1-.088 1.498l.038-.643-.038.643h-.01l-.025-.002-.049-.004-.042-.003a33.995 33.995 0 0 1-1.627-.174 48.714 48.714 0 0 1-4.517-.822c-3.714-.852-8.64-2.412-13.457-5.246-6.912-4.066-9.519-9.344-11.728-14.616-.202-.483-.4-.965-.599-1.445-1.967-4.768-3.874-9.394-8.583-13.333-3.605-3.017-8.134-2.75-10.726-.67-1.285 1.03-2.1 2.505-2.132 4.287" fill="#111827"/>
    <path fill-rule="evenodd" clip-rule="evenodd" d="M76.63 57.557c.536 3.877-1.49 8.105-6.303 8.98l-.135-.738.135.738c-2.862.52-4.642 1.766-5.686 3.307-1.054 1.557-1.417 3.505-1.268 5.516a.75.75 0 1 1-1.496.11c-.166-2.245.228-4.555 1.522-6.467 1.306-1.927 3.467-3.362 6.66-3.942 3.857-.701 5.535-4.041 5.085-7.298-.446-3.23-2.992-6.263-7.62-6.19-4.733.074-10.845 3.673-15.116 9.413-4.244 5.704-6.555 13.374-3.89 21.447a.75.75 0 0 1-1.424.47c-2.852-8.637-.355-16.81 4.11-22.813 4.44-5.965 10.94-9.933 16.296-10.017l.012.75-.012-.75c5.462-.086 8.591 3.58 9.13 7.484z" fill="#111827"/>
    <path fill-rule="evenodd" clip-rule="evenodd" d="M45.57 85.623c2.298-4.27 8.996-11.437 20.25-10.799l-.042.749.042-.749c3.03.172 5.205.849 6.702 1.878 1.517 1.044 2.29 2.417 2.553 3.854.259 1.414.019 2.853-.415 4.074-.432 1.219-1.08 2.285-1.713 2.963a.75.75 0 1 1-1.096-1.024c.47-.504 1.02-1.384 1.396-2.44.374-1.054.55-2.22.353-3.303-.195-1.062-.754-2.08-1.928-2.888-1.194-.821-3.07-1.454-5.936-1.616-10.502-.595-16.731 6.083-18.846 10.012-1.012 1.88-1.464 4.84-.78 7.498.67 2.613 2.415 4.883 5.793 5.601a.75.75 0 1 1-.312 1.468c-4.03-.858-6.148-3.633-6.934-6.696-.775-3.016-.282-6.363.913-8.582z" fill="#111827"/>
    <path fill-rule="evenodd" clip-rule="evenodd" d="M54.047 92.395c3.313-3.976 8.625-6.384 14.745-6.221 3.075.082 5.344.894 6.892 2.198 1.556 1.309 2.314 3.054 2.467 4.853.3 3.53-1.73 7.388-4.794 8.876-2.284 1.11-5.227 1.633-7.546 1.885a42.476 42.476 0 0 1-3.813.238l-.238.002H61.673l.005-.75-.005.75a.75.75 0 0 1 .011-1.5m0 0H61.757l.222-.002a40.678 40.678 0 0 0 3.67-.23c2.275-.247 5.007-.748 7.052-1.742 2.453-1.191 4.207-4.428 3.955-7.4-.123-1.453-.724-2.812-1.938-3.833-1.22-1.026-3.128-1.77-5.966-1.846-5.703-.152-10.56 2.09-13.553 5.682-2.985 3.582-4.16 8.555-2.424 13.992 1.717 5.377 7.709 10.893 17.009 15.661 9.255 4.745 21.631 8.666 35.839 10.942a.75.75 0 1 1-.238 1.481c-14.327-2.295-26.86-6.256-36.286-11.088-9.382-4.81-15.845-10.566-17.753-16.539-1.889-5.914-.62-11.424 2.7-15.41m7.638 10.332zM76.758 10.06a.75.75 0 0 1 .332.623v27.806a.75.75 0 0 1-.984.712L38.32 26.843a.75.75 0 0 1-.05-1.407L76.055 9.989a.75.75 0 0 1 .702.071zM40.726 26.052 75.59 37.454V11.8L40.726 26.052z" fill="#111827"/>
    <path fill-rule="evenodd" clip-rule="evenodd" d="M76.34 13.408a.75.75 0 0 1 .75.75v45.155a.75.75 0 0 1-1.5 0V14.158a.75.75 0 0 1 .75-.75z" fill="#111827"/>
</svg>
